<?xml version="1.0" encoding="UTF-8"?>
<svg id="Layer_1" data-name="Layer 1" xmlns="http://www.w3.org/2000/svg" version="1.1" xmlns:xlink="http://www.w3.org/1999/xlink" viewBox="0 0 243 60">
  <defs>
    <style>
      .cls-1 {
        fill: url(#linear-gradient);
        stroke-width: 0px;
      }
    </style>
    <linearGradient id="linear-gradient" x1="0" y1="37.7" x2="242.5" y2="24.4" gradientTransform="translate(0 61) scale(1 -1)" gradientUnits="userSpaceOnUse">
      <stop offset="0" stop-color="#c75f9a"/>
      <stop offset="1" stop-color="#1799b3"/>
    </linearGradient>
  </defs>
  <path class="cls-1" d="M20.3,0h203.2c2.2,0,4.3.9,5.8,2.5l11.5,12.2c1.4,1.5,2.2,3.4,2.2,5.5v20.5c0,2.1-.8,4.2-2.3,5.7l-11.3,11.3c-1.5,1.5-3.5,2.3-5.7,2.3H20.3c-2.1,0-4.2-.8-5.7-2.3l-12.3-12.3c-1.5-1.5-2.3-3.5-2.3-5.7v-19.4c0-2.1.8-4.2,2.3-5.7L14.7,2.3c1.5-1.5,3.5-2.3,5.7-2.3Z"/>
</svg>