<svg width="51" height="47" viewBox="0 0 51 47" fill="none" xmlns="http://www.w3.org/2000/svg">
<path d="M40.85 5L49.55 20C50.95 22.5 50.95 25.5 49.55 28L40.85 43C39.45 45.5 36.75 47 33.95 47H16.65C13.75 47 11.15 45.5 9.75 43L1.05 28C-0.35 25.5 -0.35 22.5 1.05 20L9.75 5C11.15 2.5 13.85 1 16.65 1H33.95C36.85 1 39.45 2.5 40.85 5Z" fill="#1F252E"/>
<g clip-path="url(#clip0_909_126)">
<path d="M36.7944 30.2728L33.4762 26.9545C31.9155 29.1703 29.5108 30.7503 26.7334 31.2235L31.2885 35.7787C31.4893 35.9795 31.7913 36.0396 32.0538 35.9309C32.3162 35.8222 32.4873 35.5662 32.4873 35.2822V31.4715H36.2979C36.5819 31.4715 36.8379 31.3005 36.9466 31.038C37.0554 30.7756 36.9953 30.4736 36.7944 30.2728Z" fill="url(#paint0_linear_909_126)"/>
<path d="M25.805 19.3647L24.9843 17.9086L24.1635 19.3647C24.0633 19.5425 23.8907 19.6679 23.6906 19.7082L22.0522 20.0388L23.1835 21.2692C23.3216 21.4194 23.3875 21.6223 23.3641 21.825L23.1723 23.4854L24.692 22.7899C24.8776 22.7049 25.0909 22.7049 25.2765 22.7899L26.7961 23.4854L26.6043 21.825C26.5809 21.6223 26.6469 21.4194 26.785 21.2692L27.9162 20.0388L26.2778 19.7082C26.0778 19.6678 25.9052 19.5425 25.805 19.3647Z" fill="url(#paint1_linear_909_126)"/>
<path d="M33.9604 20.9914C33.9604 16.0421 29.9339 12.0156 24.9846 12.0156C20.0353 12.0156 16.0088 16.0421 16.0088 20.9914C16.0088 25.9407 20.0353 29.9672 24.9846 29.9672C29.9339 29.9672 33.9604 25.9407 33.9604 20.9914ZM29.7937 20.0721L28.0368 21.9831L28.3346 24.5618C28.3637 24.8136 28.2548 25.0615 28.0497 25.2105C27.7043 25.4613 27.3524 25.2843 27.3447 25.2808L24.9846 24.2006L22.6244 25.2809C22.394 25.3865 22.1245 25.3595 21.9194 25.2105C21.7144 25.0615 21.6055 24.8136 21.6346 24.5619L21.9324 21.9832L20.1755 20.0722C20.0039 19.8856 19.9463 19.621 20.0245 19.3799C20.1029 19.1389 20.3051 18.9587 20.5535 18.9086L23.0981 18.3951L24.3728 16.1337C24.4972 15.9129 24.731 15.7763 24.9845 15.7763C25.238 15.7763 25.4718 15.9129 25.5962 16.1337L26.8709 18.3951L29.4155 18.9086C29.664 18.9587 29.8662 19.1389 29.9445 19.3799C30.0229 19.6209 29.9652 19.8855 29.7937 20.0721Z" fill="url(#paint2_linear_909_126)"/>
<path d="M16.5055 26.973L13.2057 30.2728C13.0049 30.4736 12.9448 30.7756 13.0535 31.0381C13.1622 31.3004 13.4182 31.4716 13.7022 31.4716H17.5129V35.2822C17.5129 35.5662 17.6839 35.8223 17.9464 35.931C18.2088 36.0396 18.5108 35.9796 18.7116 35.7787L23.2623 31.228C20.4812 30.7617 18.0715 29.1862 16.5055 26.973Z" fill="url(#paint3_linear_909_126)"/>
</g>
<path d="M17.35 1H34.05C36.95 1 39.55 2.5 40.95 5L49.35 19.5C50.75 22 50.75 25 49.35 27.5L40.95 42C39.55 44.5 36.85 46 34.05 46H17.35C14.45 46 11.85 44.5 10.45 42L2.05 27.5C0.65 25 0.65 22 2.05 19.5L10.45 5C11.85 2.5 14.55 1 17.35 1Z" stroke="url(#paint4_linear_909_126)"/>
<defs>
<linearGradient id="paint0_linear_909_126" x1="37.2443" y1="30.8245" x2="26.7351" y2="31.1023" gradientUnits="userSpaceOnUse">
<stop stop-color="#B9528E"/>
<stop offset="1" stop-color="#C183AA"/>
</linearGradient>
<linearGradient id="paint1_linear_909_126" x1="28.0556" y1="20.2987" x2="22.0526" y2="20.4454" gradientUnits="userSpaceOnUse">
<stop stop-color="#B9528E"/>
<stop offset="1" stop-color="#C183AA"/>
</linearGradient>
<linearGradient id="paint2_linear_909_126" x1="34.3873" y1="19.7091" x2="16.0088" y2="20.1365" gradientUnits="userSpaceOnUse">
<stop stop-color="#B9528E"/>
<stop offset="1" stop-color="#C183AA"/>
</linearGradient>
<linearGradient id="paint3_linear_909_126" x1="23.5064" y1="30.835" x2="13.0017" y2="31.1132" gradientUnits="userSpaceOnUse">
<stop stop-color="#B9528E"/>
<stop offset="1" stop-color="#C183AA"/>
</linearGradient>
<linearGradient id="paint4_linear_909_126" x1="38.35" y1="1.6" x2="13.15" y2="45.3" gradientUnits="userSpaceOnUse">
<stop stop-color="white" stop-opacity="0.3"/>
<stop offset="1" stop-color="white" stop-opacity="0"/>
</linearGradient>
<clipPath id="clip0_909_126">
<rect width="24" height="24" fill="white" transform="translate(13 12)"/>
</clipPath>
</defs>
</svg>
