<svg width="133" height="133" viewBox="0 0 133 133" fill="none" xmlns="http://www.w3.org/2000/svg">
<g clip-path="url(#clip0_1024_68)">
<mask id="mask0_1024_68" style="mask-type:luminance" maskUnits="userSpaceOnUse" x="0" y="0" width="133" height="133">
<path d="M133 0H0V133H133V0Z" fill="white"/>
</mask>
<g mask="url(#mask0_1024_68)">
<path d="M70.3287 2.10701L70.342 2.12797L70.357 2.14776C72.5206 4.9966 75.8399 7.29083 79.7796 9.13421C83.7247 10.9801 88.3315 12.3922 93.1163 13.4556C102.685 15.5824 113.032 16.329 120.372 16.329C122.191 16.329 123.668 17.8096 123.668 19.6397V82.2188C123.668 100.578 110.043 113.284 95.8257 121.355C88.7333 125.381 81.5379 128.227 75.9191 130.022C73.11 130.92 70.7007 131.553 68.9013 131.94C68.0008 132.133 67.2595 132.263 66.7009 132.335C66.4212 132.371 66.1942 132.391 66.0198 132.397C65.8347 132.404 65.746 132.394 65.7226 132.389C53.4984 129.727 39.3286 124.114 28.2298 115.681C17.1313 107.249 9.17236 96.0557 9.17236 82.2188V19.6397C9.17236 17.8087 10.65 16.329 12.4688 16.329C20.3529 16.329 30.9862 15.5067 40.8892 13.3052C50.76 11.1109 60.0396 7.51833 65.0772 1.88551L65.0885 1.87279L65.0992 1.85944C66.5337 0.0592268 69.1341 0.229863 70.3287 2.10701ZM66.2755 125.716L66.4199 125.752L66.5643 125.716C69.8764 124.895 82.4556 121.493 94.2202 114.596C105.96 107.714 117.075 97.2377 117.075 82.2188V23.5078V22.9213L116.489 22.9079C108.513 22.7264 99.3013 21.872 90.5971 19.7446C81.8858 17.6154 73.7309 14.2227 67.8229 8.99749L67.4477 8.66565L67.0542 8.97556C61.1998 13.5862 46.3226 22.2146 16.3515 22.9069L15.7653 22.9204V23.5067V82.2188C15.7653 97.2377 26.88 107.714 38.62 114.596C50.3844 121.493 62.9634 124.895 66.2755 125.716Z" fill="white" stroke="#03050E" stroke-width="2.5"/>
<path d="M46.9508 63.2633H47.5508V62.6633V50.7994C47.5508 40.7592 55.5369 31.9738 66.5377 31.9738C76.8759 31.9738 85.2902 40.4173 85.2902 50.7994C85.2902 52.6294 83.8124 54.11 81.9937 54.11C80.176 54.11 78.6973 52.6293 78.6973 50.7994C78.6973 44.0714 73.2456 38.5962 66.5377 38.5962C59.21 38.5962 54.1437 44.3718 54.1437 50.7994V62.6633V63.2633H54.7437H89.7989C91.6176 63.2633 93.0954 64.7439 93.0954 66.574V97.8636C93.0954 99.6947 91.6175 101.175 89.7989 101.175H43.0411C41.2234 101.175 39.7446 99.6946 39.7446 97.8636V66.574C39.7446 64.7441 41.2233 63.2633 43.0411 63.2633H46.9508ZM85.9024 94.5529H86.5024V93.9529V70.4857V69.8857H85.9024H46.9376H46.3376V70.4857V93.9529V94.5529H46.9376H85.9024Z" fill="white" stroke="#03050E" stroke-width="2.5"/>
<path d="M66.42 78.9081C68.2388 78.9081 69.7165 80.3878 69.7165 82.2188C69.7165 84.05 68.2386 85.5305 66.42 85.5305C64.6023 85.5305 63.1235 84.0499 63.1235 82.2188C63.1235 80.3879 64.6021 78.9081 66.42 78.9081Z" fill="white" stroke="black" stroke-width="2.5"/>
</g>
</g>
<defs>
<clipPath id="clip0_1024_68">
<rect width="133" height="133" fill="white"/>
</clipPath>
</defs>
</svg>
