<svg width="243" height="60" viewBox="0 0 243 60" fill="none" xmlns="http://www.w3.org/2000/svg">
<path d="M3.3 15.1L15.1 3.3C16.6 1.8 18.6 1 20.8 1H223.2C225.4 1 227.5 1.9 229 3.5L239.9 15.1C241.3 16.6 242.1 18.5 242.1 20.6V40.3C242.1 42.4 241.3 44.5 239.8 46L229.1 56.7C227.6 58.2 225.6 59 223.4 59H20.7C18.6 59 16.5 58.2 15 56.7L3.3 45C1.8 43.5 1 41.5 1 39.3V20.8C1 18.7 1.8 16.6 3.3 15.1Z" fill="white" stroke="url(#paint0_linear_910_181)" stroke-width="2"/>
<defs>
<linearGradient id="paint0_linear_910_181" x1="0.1" y1="23.3" x2="242.5" y2="36.6" gradientUnits="userSpaceOnUse">
<stop stop-color="#C75F9A"/>
<stop offset="1" stop-color="#1799B3"/>
</linearGradient>
</defs>
</svg>
