<?xml version="1.0" encoding="UTF-8"?>
<svg id="Layer_1" data-name="Layer 1" xmlns="http://www.w3.org/2000/svg" xmlns:xlink="http://www.w3.org/1999/xlink" viewBox="0 0 178 58">
  <defs>
    <style>
      .cls-1 {
        fill: #0f1215;
        stroke: url(#linear-gradient);
        stroke-width: 2px;
      }
    </style>
    <linearGradient id="linear-gradient" x1="-1.04" y1="32.69" x2="178.72" y2="25.36" gradientTransform="translate(0 58) scale(1 -1)" gradientUnits="userSpaceOnUse">
      <stop offset="0" stop-color="#eb148e"/>
      <stop offset="1" stop-color="#eb148e"/>
    </linearGradient>
  </defs>
  <path class="cls-1" d="M2.34,14.07L14.07,2.34c1.5-1.5,3.54-2.34,5.66-2.34h139.38c2.21,0,4.31.91,5.83,2.52l10.89,11.57c1.4,1.48,2.17,3.45,2.17,5.48v19.7c0,2.12-.84,4.16-2.34,5.66l-10.73,10.73c-1.5,1.5-3.54,2.34-5.66,2.34H19.73c-2.12,0-4.16-.84-5.66-2.34l-11.73-11.73c-1.5-1.5-2.34-3.54-2.34-5.66v-18.54c0-2.12.84-4.16,2.34-5.66Z"/>
</svg>