<?xml version="1.0" encoding="UTF-8"?>
<svg id="Layer_1" data-name="Layer 1" xmlns="http://www.w3.org/2000/svg" viewBox="0 0 1289.47 390">
  <defs>
    <style>
      .cls-1 {
        fill: #0b0e13;
        stroke: #262932;
      }
    </style>
  </defs>
  <path class="cls-1" d="M9.89,61.52L49.25,14.75C56.85,5.71,68.05.5,79.85.5h1129.88c11.76,0,22.92,5.17,30.52,14.14l39.24,46.31c6.14,7.25,9.5,16.44,9.48,25.94l-.44,216.12c-.02,9.55-3.46,18.78-9.69,26.02l-40.1,46.57c-7.6,8.82-18.67,13.9-30.31,13.9H79.85c-11.8,0-23.01-5.21-30.61-14.25l-39.35-46.77c-6.07-7.21-9.39-16.33-9.39-25.75V87.27c0-9.42,3.33-18.54,9.39-25.75Z"/>
</svg>