<svg width="16" height="16" viewBox="0 0 16 16" fill="none" xmlns="http://www.w3.org/2000/svg">
<g id="Favicon">
<g id="Group 5">
<g id="Group 1">
<path id="Vector" fill-rule="evenodd" clip-rule="evenodd" d="M6.64746 1.76061L7.99923 1L14.2214 4.49962L12.8696 5.26023L6.64746 1.76061Z" fill="#EC008C"/>
<path id="Vector_2" fill-rule="evenodd" clip-rule="evenodd" d="M5.29639 2.52135L6.64816 1.76074L10.8427 4.11946L9.49089 4.88006L5.29639 2.52135Z" fill="#C40075"/>
<path id="Vector_3" fill-rule="evenodd" clip-rule="evenodd" d="M3.94482 3.28045L5.29659 2.52124L6.64836 3.28045L5.29659 4.04105L3.94482 3.28045Z" fill="#9E005D"/>
<path id="Vector_4" fill-rule="evenodd" clip-rule="evenodd" d="M5.97217 5.18199L7.32394 4.42139L10.8426 6.4012L9.49079 7.1618L5.97217 5.18199Z" fill="#9E005D"/>
<path id="Vector_5" fill-rule="evenodd" clip-rule="evenodd" d="M9.49072 5.64066L10.8425 4.88006L12.1943 5.64066L14.2219 4.49976V6.02097L12.1943 7.16188L9.49072 5.64066Z" fill="#C40075"/>
<path id="Vector_6" fill-rule="evenodd" clip-rule="evenodd" d="M14.2222 9.979V11.5002L8 14.9998V13.48L14.2222 9.979Z" fill="#EC008C"/>
<path id="Vector_7" fill-rule="evenodd" clip-rule="evenodd" d="M14.2218 8.45923V9.97904L10.0273 12.3392V10.8179L14.2218 8.45923Z" fill="#C40075"/>
<path id="Vector_8" fill-rule="evenodd" clip-rule="evenodd" d="M14.2219 6.93823V8.45944L12.8701 9.21865V7.69884L14.2219 6.93823Z" fill="#9E005D"/>
<path id="Vector_9" fill-rule="evenodd" clip-rule="evenodd" d="M11.5186 7.69873V9.21854L8 11.1984V9.67714L11.5186 7.69873Z" fill="#9E005D"/>
<path id="Vector_10" fill-rule="evenodd" clip-rule="evenodd" d="M9.35198 10.4375V11.9587L8.00021 12.7193V14.9997L6.64844 14.2391V11.9587L9.35198 10.4375Z" fill="#C40075"/>
<path id="Vector_11" fill-rule="evenodd" clip-rule="evenodd" d="M3.1296 12.261L1.77783 11.5004V4.49976L3.1296 5.26036V12.261Z" fill="#EC008C"/>
<path id="Vector_12" fill-rule="evenodd" clip-rule="evenodd" d="M4.48117 13.0217L3.12939 12.2611V7.54224L4.48117 8.30144V13.0217Z" fill="#C40075"/>
<path id="Vector_13" fill-rule="evenodd" clip-rule="evenodd" d="M5.83322 13.7807L4.48145 13.0215V11.5002L5.83322 12.2609V13.7807Z" fill="#9E005D"/>
<path id="Vector_14" fill-rule="evenodd" clip-rule="evenodd" d="M6.50851 11.1202L5.15674 10.3596V6.40137L6.50851 7.16197V11.1202Z" fill="#9E005D"/>
<path id="Vector_15" fill-rule="evenodd" clip-rule="evenodd" d="M5.15726 7.92259L3.80549 7.16198V5.64077L1.77783 4.49986L3.1296 3.73926L5.15726 4.88017V7.92259Z" fill="#C40075"/>
</g>
</g>
</g>
</svg>
