<svg width="29" height="32" viewBox="0 0 29 32" fill="none" xmlns="http://www.w3.org/2000/svg">
<path fill-rule="evenodd" clip-rule="evenodd" d="M11.0903 1.73854L14.1684 0L28.3367 7.9992L25.2586 9.73774L11.0903 1.73854Z" fill="#EC008C"/>
<path fill-rule="evenodd" clip-rule="evenodd" d="M8.01196 3.47706L11.09 1.73853L20.6412 7.12991L17.5632 8.86845L8.01196 3.47706Z" fill="#C40075"/>
<path fill-rule="evenodd" clip-rule="evenodd" d="M4.93408 5.21239L8.01216 3.47705L11.0902 5.21239L8.01216 6.95093L4.93408 5.21239Z" fill="#9E005D"/>
<path fill-rule="evenodd" clip-rule="evenodd" d="M9.55103 9.55861L12.6291 7.82007L20.6413 12.3454L17.5632 14.0839L9.55103 9.55861Z" fill="#9E005D"/>
<path fill-rule="evenodd" clip-rule="evenodd" d="M17.5635 10.6068L20.6416 8.86829L23.7196 10.6068L28.3368 7.99902V11.4761L23.7196 14.0839L17.5635 10.6068Z" fill="#C40075"/>
<path fill-rule="evenodd" clip-rule="evenodd" d="M28.3368 20.5237V24.0008L14.1685 32V28.5261L28.3368 20.5237Z" fill="#EC008C"/>
<path fill-rule="evenodd" clip-rule="evenodd" d="M28.3366 17.0498V20.5237L18.7854 25.9183V22.4412L28.3366 17.0498Z" fill="#C40075"/>
<path fill-rule="evenodd" clip-rule="evenodd" d="M28.3366 13.5728V17.0498L25.2585 18.7852V15.3113L28.3366 13.5728Z" fill="#9E005D"/>
<path fill-rule="evenodd" clip-rule="evenodd" d="M22.1806 15.3113V18.7852L14.1685 23.3105V19.8334L22.1806 15.3113Z" fill="#9E005D"/>
<path fill-rule="evenodd" clip-rule="evenodd" d="M17.2465 21.572V25.0491L14.1684 26.7876V32.0001L11.0903 30.2615V25.0491L17.2465 21.572Z" fill="#C40075"/>
<path fill-rule="evenodd" clip-rule="evenodd" d="M3.07808 25.7394L0 24.0009V7.99927L3.07808 9.73781V25.7394Z" fill="#EC008C"/>
<path fill-rule="evenodd" clip-rule="evenodd" d="M6.15621 27.4779L3.07812 25.7393V14.9534L6.15621 16.6887V27.4779Z" fill="#C40075"/>
<path fill-rule="evenodd" clip-rule="evenodd" d="M9.23433 29.2132L6.15625 27.4778V24.0007L9.23433 25.7393V29.2132Z" fill="#9E005D"/>
<path fill-rule="evenodd" clip-rule="evenodd" d="M10.7734 23.1317L7.69531 21.3931V12.3457L10.7734 14.0842V23.1317Z" fill="#9E005D"/>
<path fill-rule="evenodd" clip-rule="evenodd" d="M7.6952 15.8227L4.61712 14.0842V10.6071L0 7.99928L3.07808 6.26074L7.6952 8.86855V15.8227Z" fill="#C40075"/>
</svg>
