<?xml version="1.0" encoding="utf-8"?>
<!-- Generator: Adobe Illustrator 24.3.0, SVG Export Plug-In . SVG Version: 6.00 Build 0)  -->
<svg version="1.1" id="Layer_1" xmlns="http://www.w3.org/2000/svg" xmlns:xlink="http://www.w3.org/1999/xlink" x="0px" y="0px"
	 viewBox="0 0 500 500" style="enable-background:new 0 0 500 500;" xml:space="preserve">
<style type="text/css">
	.st0{fill-rule:evenodd;clip-rule:evenodd;fill:#235FB7;}
	.st1{fill-rule:evenodd;clip-rule:evenodd;fill:#164591;}
	.st2{fill-rule:evenodd;clip-rule:evenodd;fill:#10306C;}
</style>
<polygon class="st0" points="204.4,45.7 245.9,21.8 436.6,131.9 395.1,155.8 "/>
<polygon class="st1" points="163,69.6 204.4,45.7 333,119.9 291.5,143.9 "/>
<polygon class="st2" points="121.6,93.6 163,69.6 204.4,93.6 163,117.4 "/>
<polygon class="st2" points="183.7,153.3 225.1,129.4 333,191.7 291.5,215.6 "/>
<polygon class="st1" points="291.5,167.7 333,143.9 374.4,167.7 436.6,131.9 436.6,179.7 374.4,215.6 "/>
<polygon class="st0" points="436.6,304.3 436.6,352.1 245.9,462.2 245.9,414.4 "/>
<polygon class="st1" points="436.6,256.4 436.6,304.3 308,378.4 308,330.6 "/>
<polygon class="st2" points="436.6,208.6 436.6,256.4 395.1,280.3 395.1,232.5 "/>
<polygon class="st2" points="353.7,229 353.7,276.8 245.9,339.1 245.9,291.2 "/>
<polygon class="st1" points="287.3,318.7 287.3,366.5 245.9,390.4 245.9,462.2 204.4,438.2 204.4,366.5 "/>
<polygon class="st0" points="96.6,376 55.2,352.1 55.2,131.9 96.6,155.8 "/>
<polygon class="st1" points="138,399.9 96.6,376 96.6,227.6 138,251.5 "/>
<polygon class="st2" points="179.4,420.3 138,396.4 138,348.6 179.4,372.5 "/>
<polygon class="st2" points="200.2,336.6 158.7,312.7 158.7,188.2 200.2,212.1 "/>
<polygon class="st1" points="158.7,239.5 117.3,215.6 117.3,167.7 55.2,131.9 96.6,108 158.7,143.9 "/>
</svg>
