<svg id="Layer_1" data-name="Layer 1" xmlns="http://www.w3.org/2000/svg" viewBox="0 0 1000 138.7"><defs><style>.cls-1{fill:#eb008b;}.cls-2,.cls-3{fill:#0093af;}.cls-2{fill-rule:evenodd;}</style></defs><path class="cls-1" d="M79.56,40.06h12V61.78h27.33V40.06h11.93v60.06H118.92V73.2H91.59v26.92h-12Z"/><polygon class="cls-1" points="173.82 71.15 145.87 40.21 161.29 40.21 179.84 60.67 198.28 40.21 213.81 40.21 185.75 71.25 185.75 100.27 173.82 100.27 173.82 71.15"/><path class="cls-1" d="M240.73,64.59h23.36a6.52,6.52,0,1,0,0-13H240.73ZM228.82,40.16h36.07a18,18,0,1,1,0,35.93H240.73v24.13H228.82Z"/><path class="cls-1" d="M297.87,40.21h50.58V51.63H309.8v11H337V74.06H309.8V88.85h38.65v11.42H297.87Z"/><path class="cls-1" d="M375.37,64.59h23.37a6.52,6.52,0,0,0,0-13H375.37ZM363.46,40.16h36.07a18,18,0,0,1,6,34.91h0l14.23,25.05H406.38l-13.73-24H375.37v24.13H363.46Z"/><path class="cls-1" d="M475.9,77.45c-2.37-4.82-4.65-9.48-9.69-19.56-4.74,9.58-7.17,14.51-9.65,19.56Zm-30.56,22.82h-13l29.43-60.06h8.83l29.77,60.06H487.3C485,95.63,483.13,92,481.62,89H450.89C449.39,92,447.59,95.68,445.34,100.27Z"/><path class="cls-1" d="M520.69,79.83C528,85.76,536,90.29,546,90.29c5.63,0,14.67-1.64,14.67-9,0-3.45-2.78-5.34-5.76-6.32-4.68-1.55-16-1.72-20.7-2.53-4.52-.78-8.17-1.71-11.72-4.61a14.2,14.2,0,0,1-5.4-11.22,15,15,0,0,1,1.8-7.3c4.23-7.79,13.87-10.56,22.19-10.56,11.79,0,20.65,4.12,30,11l-7,10c-6.45-5.47-13.47-9.45-22.87-9.45a22.2,22.2,0,0,0-5.11.54c-2.53.6-6.7,2.3-6.7,5.44s3.77,4,6,4.52c4.47,1,9.06,1,13.6,1.4a38.72,38.72,0,0,1,11.74,2.35,19.79,19.79,0,0,1,10.85,9.87,17.89,17.89,0,0,1-.53,15.29c-2.88,5.45-8.61,9.06-14.42,10.71a38.71,38.71,0,0,1-10.56,1.35,53.46,53.46,0,0,1-8.35-.64A45.72,45.72,0,0,1,522.64,96a64.93,64.93,0,0,1-8.81-6l6.86-10.17"/><path class="cls-2" d="M649.58,38.56A31.5,31.5,0,0,1,676.15,53.1l-9.77,6.24a19.95,19.95,0,1,0,0,21.49l9.77,6.25a31.53,31.53,0,1,1-26.57-48.52"/><path class="cls-3" d="M691.16,40.06h12V61.78h27.33V40.06h11.93v60.06H730.52V73.2H703.19v26.92h-12Z"/><rect class="cls-3" x="840.51" y="40.06" width="11.97" height="60.06"/><polygon class="cls-3" points="869.3 40.06 876.49 40.06 908.49 76.91 908.49 40.06 920.4 40.06 920.4 100.12 913.22 100.12 881.21 63.36 881.21 100.12 869.3 100.12 869.3 40.06"/><path class="cls-3" d="M801,77.29c-2.37-4.81-4.65-9.47-9.69-19.55-4.74,9.58-7.17,14.5-9.65,19.55Zm-30.56,22.83h-13L786.9,40.06h8.83l29.77,60.06H812.41c-2.34-4.64-4.17-8.28-5.68-11.3H776C774.49,91.88,772.7,95.53,770.45,100.12Z"/></svg>