<svg id="Layer_1" data-name="Layer 1" xmlns="http://www.w3.org/2000/svg" viewBox="0 0 963.08 87.8"><defs><style>.cls-1,.cls-5{fill:#164591;}.cls-2,.cls-3{fill:#16ab95;}.cls-2,.cls-4,.cls-5,.cls-6{fill-rule:evenodd;}.cls-4{fill:#235fb7;}.cls-6{fill:#10306c;}</style></defs><path class="cls-1" d="M179,40.06h12V61.78h27.33V40.06h11.93v60.06H218.34V73.2H191v26.92H179Z" transform="translate(-56.75 -27.56)"/><polygon class="cls-1" points="216.49 43.59 188.54 12.65 203.96 12.65 222.52 33.11 240.96 12.65 256.48 12.65 228.42 43.7 228.42 72.71 216.49 72.71 216.49 43.59"/><path class="cls-1" d="M340.15,64.59h23.36a6.52,6.52,0,1,0,0-13H340.15ZM328.24,40.16h36.07a18,18,0,1,1,0,35.93H340.15v24.13H328.24Z" transform="translate(-56.75 -27.56)"/><path class="cls-1" d="M397.29,40.21h50.58V51.63H409.22v11h27.23V74.06H409.22V88.85h38.65v11.42H397.29Z" transform="translate(-56.75 -27.56)"/><path class="cls-1" d="M474.79,64.59h23.37a6.52,6.52,0,0,0,0-13H474.79ZM462.88,40.16H499a18,18,0,0,1,6,34.91h0l14.23,25.05H505.8l-13.73-24H474.79v24.13H462.88Z" transform="translate(-56.75 -27.56)"/><path class="cls-1" d="M575.32,77.45c-2.37-4.82-4.65-9.48-9.68-19.56-4.75,9.58-7.18,14.51-9.66,19.56Zm-30.56,22.82h-13l29.43-60.06H570l29.77,60.06H586.72C584.38,95.63,582.55,92,581,89H550.32C548.81,92,547,95.68,544.76,100.27Z" transform="translate(-56.75 -27.56)"/><path class="cls-1" d="M620.11,79.83c7.32,5.93,15.35,10.46,25.35,10.46,5.62,0,14.66-1.64,14.66-9,0-3.45-2.78-5.34-5.76-6.32-4.68-1.55-16-1.72-20.7-2.53-4.52-.78-8.16-1.71-11.72-4.61a14.2,14.2,0,0,1-5.4-11.22,15,15,0,0,1,1.8-7.3c4.23-7.79,13.87-10.56,22.19-10.56,11.79,0,20.65,4.12,30,11l-7,10c-6.45-5.47-13.47-9.45-22.87-9.45a22.2,22.2,0,0,0-5.11.54c-2.53.6-6.7,2.3-6.7,5.44s3.77,4,6,4.52c4.47,1,9.06,1,13.6,1.4a38.72,38.72,0,0,1,11.74,2.35,19.79,19.79,0,0,1,10.85,9.87,17.89,17.89,0,0,1-.53,15.29c-2.88,5.45-8.61,9.06-14.42,10.71a38.71,38.71,0,0,1-10.56,1.35,53.46,53.46,0,0,1-8.35-.64A45.72,45.72,0,0,1,622.06,96a64.93,64.93,0,0,1-8.81-6l6.86-10.17" transform="translate(-56.75 -27.56)"/><path class="cls-2" d="M749,38.56A31.5,31.5,0,0,1,775.57,53.1l-9.77,6.24a19.95,19.95,0,1,0,0,21.49l9.77,6.25A31.53,31.53,0,1,1,749,38.56" transform="translate(-56.75 -27.56)"/><path class="cls-3" d="M790.58,40.06h12V61.78h27.33V40.06h11.93v60.06H829.94V73.2H802.61v26.92h-12Z" transform="translate(-56.75 -27.56)"/><rect class="cls-3" x="883.19" y="12.5" width="11.97" height="60.06"/><polygon class="cls-3" points="911.98 12.5 919.16 12.5 951.17 49.35 951.17 12.5 963.08 12.5 963.08 72.56 955.9 72.56 923.89 35.8 923.89 72.56 911.98 72.56 911.98 12.5"/><path class="cls-3" d="M900.43,77.29c-2.37-4.81-4.65-9.47-9.69-19.55-4.74,9.58-7.17,14.5-9.65,19.55Zm-30.56,22.83h-13l29.43-60.06h8.83l29.77,60.06H911.83c-2.34-4.64-4.17-8.28-5.68-11.3H875.42Z" transform="translate(-56.75 -27.56)"/><polygon class="cls-4" points="29.76 4.77 38.02 0 76.04 21.95 67.78 26.72 29.76 4.77"/><polygon class="cls-5" points="21.5 9.54 29.76 4.77 55.39 19.57 47.13 24.34 21.5 9.54"/><polygon class="cls-6" points="13.24 14.31 21.5 9.54 29.76 14.31 21.5 19.07 13.24 14.31"/><polygon class="cls-6" points="25.63 26.23 33.89 21.46 55.39 33.87 47.13 38.64 25.63 26.23"/><polygon class="cls-5" points="47.13 29.1 55.39 24.34 63.65 29.1 76.04 21.95 76.04 31.49 63.65 38.64 47.13 29.1"/><polygon class="cls-4" points="76.04 56.32 76.04 65.85 38.02 87.8 38.02 78.27 76.04 56.32"/><polygon class="cls-5" points="76.04 46.78 76.04 56.32 50.41 71.11 50.41 61.58 76.04 46.78"/><polygon class="cls-6" points="76.04 37.24 76.04 46.78 67.78 51.55 67.78 42.01 76.04 37.24"/><polygon class="cls-6" points="59.52 41.31 59.52 50.85 38.02 63.26 38.02 53.72 59.52 41.31"/><polygon class="cls-5" points="46.28 59.19 46.28 68.73 38.02 73.5 38.02 87.8 29.76 83.03 29.76 68.73 46.28 59.19"/><polygon class="cls-4" points="8.26 70.62 0 65.85 0 21.95 8.26 26.72 8.26 70.62"/><polygon class="cls-5" points="16.52 75.39 8.26 70.62 8.26 41.03 16.52 45.79 16.52 75.39"/><polygon class="cls-6" points="24.78 79.46 16.52 74.69 16.52 65.15 24.78 69.92 24.78 79.46"/><polygon class="cls-6" points="28.91 62.77 20.65 58 20.65 33.17 28.91 37.94 28.91 62.77"/><polygon class="cls-5" points="20.65 43.41 12.39 38.64 12.39 29.1 0 21.95 8.26 17.18 20.65 24.34 20.65 43.41"/></svg>